<?xml version="1.0" standalone="no"?>
<!DOCTYPE svg PUBLIC "-//W3C//DTD SVG 20010904//EN"
 "http://www.w3.org/TR/2001/REC-SVG-20010904/DTD/svg10.dtd">
<svg version="1.0" xmlns="http://www.w3.org/2000/svg"
 width="1200.000000pt" height="1200.000000pt" viewBox="0 0 1200.000000 1200.000000"
 preserveAspectRatio="xMidYMid meet">

<g transform="translate(0.000000,1200.000000) scale(0.100000,-0.100000)"
fill="#000000" stroke="none">
<path d="M7199 8040 c-86 -45 -187 -201 -295 -453 l-33 -77 77 65 c57 48 88
84 122 141 50 85 99 134 134 134 22 0 68 -41 78 -69 2 -8 130 22 146 34 7 6
-41 136 -64 171 -47 73 -98 89 -165 54z"/>
<path d="M4591 7685 c-34 -31 -81 -111 -111 -189 -10 -27 -9 -28 12 -22 13 3
39 6 58 6 30 1 38 6 62 45 14 24 38 51 53 61 25 16 27 16 53 -3 22 -16 63 -74
74 -105 2 -4 18 -11 37 -14 32 -7 33 -6 26 17 -4 13 -22 56 -40 95 -65 143
-144 181 -224 109z"/>
<path d="M5795 7619 c-310 -32 -640 -145 -888 -305 l-68 -44 -6 31 c-6 30 -8
31 -42 25 -20 -4 -73 -9 -119 -13 -79 -6 -83 -7 -78 -27 3 -12 13 -54 23 -94
l17 -73 -81 -82 -82 -82 -10 -98 c-31 -282 -23 -675 20 -892 23 -122 23 -115
-1 -115 -24 0 -24 2 0 -55 28 -66 77 -130 119 -158 56 -37 80 -42 40 -8 -44
37 -82 119 -106 231 -25 117 -25 455 0 620 31 203 88 413 146 542 23 51 100
115 253 210 435 270 1036 362 1523 234 165 -44 394 -142 544 -234 54 -33 67
-46 83 -88 39 -99 63 -231 78 -428 6 -88 13 -133 24 -145 8 -9 14 -18 13 -21
-1 -3 14 -31 34 -64 l36 -58 7 53 c29 237 47 415 52 535 l7 141 -49 39 c-28
21 -60 46 -73 54 l-22 15 29 76 29 76 -91 6 c-50 3 -115 11 -144 18 -47 10
-55 9 -66 -7 -12 -16 -19 -14 -108 23 -326 141 -696 198 -1043 162z"/>
<path d="M4048 6135 c-39 -168 -48 -253 -48 -433 0 -176 17 -317 56 -466 193
-736 817 -1290 1604 -1426 139 -24 449 -38 489 -23 19 8 5 11 -68 16 -183 13
-351 56 -661 167 -323 116 -559 257 -760 457 -30 30 -84 75 -120 101 -219 159
-382 550 -445 1064 -16 137 -21 300 -11 368 4 25 3 101 -1 170 l-8 125 -27
-120z"/>
<path d="M7892 6185 c-1 -33 -5 -98 -8 -145 -4 -64 -3 -81 6 -68 7 11 9 64 7
145 -1 70 -4 101 -5 68z"/>
<path d="M4966 5977 c-19 -41 -44 -94 -56 -116 -11 -23 -18 -41 -15 -41 8 0
117 222 111 228 -3 3 -21 -29 -40 -71z"/>
<path d="M7111 5807 c-17 -40 -49 -96 -71 -124 -22 -29 -36 -53 -32 -53 20 0
82 53 119 102 39 51 78 118 71 122 -2 1 -15 7 -29 13 -26 11 -27 10 -58 -60z"/>
<path d="M7980 4091 c-42 -6 -52 -13 -146 -116 -337 -369 -488 -573 -615 -828
-106 -215 -209 -561 -177 -594 28 -27 272 -143 364 -173 271 -87 493 -78 699
28 106 54 237 190 297 307 107 210 138 375 138 733 0 219 13 522 26 610 l6 42
-273 -2 c-151 0 -294 -4 -319 -7z"/>
<path d="M3444 4008 c4 -35 11 -247 16 -473 5 -225 12 -423 15 -440 3 -16 11
-52 16 -80 58 -281 206 -503 408 -609 113 -59 206 -80 356 -80 137 1 216 14
353 59 81 27 300 132 340 163 l23 18 -20 95 c-49 237 -167 516 -308 729 -89
135 -232 312 -417 518 l-146 162 -170 0 c-94 0 -170 -2 -170 -5 0 -3 26 -45
58 -93 51 -75 171 -274 241 -396 12 -21 20 -40 18 -43 -3 -2 -71 83 -152 189
-82 106 -177 228 -213 271 l-64 77 -95 0 -96 0 7 -62z"/>
<path d="M5105 2358 c-36 -13 -82 -53 -101 -90 -8 -15 -14 -50 -14 -78 0 -28
6 -63 14 -78 19 -36 65 -78 99 -91 37 -14 1747 -15 1797 -1 20 5 50 24 67 42
91 94 65 235 -52 289 -38 18 -85 19 -910 18 -578 0 -880 -4 -900 -11z"/>
<path d="M5121 1930 c-78 -19 -124 -77 -128 -163 -5 -77 22 -130 82 -164 l40
-23 889 0 889 0 41 24 c117 69 113 248 -7 314 -30 16 -94 17 -902 19 -478 0
-885 -2 -904 -7z"/>
<path d="M5380 1481 c-103 -54 -125 -192 -46 -279 52 -59 34 -57 626 -60 300
-2 568 0 597 3 57 7 104 34 137 78 17 23 21 43 21 100 0 85 -22 125 -85 157
-38 19 -61 20 -627 20 -554 0 -590 -1 -623 -19z"/>
</g>
</svg>
